<?xml version="1.0" encoding="UTF-8"?>
<svg width="354px" height="76px" viewBox="0 0 354 76" version="1.1" xmlns="http://www.w3.org/2000/svg" xmlns:xlink="http://www.w3.org/1999/xlink" fill="#FFF">
    <defs>
        <path d="M127.28,47.16 C127.28,51.2400204 129.079982,53.28 132.68,53.28 C136.280018,53.28 138.08,51.2400204 138.08,47.16 L138.08,44.28 L146.36,44.28 L146.36,46.08 C146.36,51.1600254 145.080013,54.9199878 142.52,57.36 C140.239989,59.5200108 136.960021,60.6 132.68,60.6 C128.399979,60.6 125.120011,59.5200108 122.84,57.36 C120.279987,54.9199878 119,51.1600254 119,46.08 L119,30.6 C119,25.5199746 120.279987,21.7600122 122.84,19.32 C125.120011,17.1599892 128.399979,16.08 132.68,16.08 C136.960021,16.08 140.239989,17.1599892 142.52,19.32 C145.080013,21.7600122 146.36,25.5199746 146.36,30.6 L146.36,30.72 L138.08,30.72 L138.08,29.52 C138.08,25.4399796 136.280018,23.4 132.68,23.4 C129.079982,23.4 127.28,25.4399796 127.28,29.52 L127.28,47.16 Z M152.36,39.12 C152.36,30.8799588 156.35996,26.76 164.36,26.76 C172.36004,26.76 176.36,30.8799588 176.36,39.12 L176.36,48.24 C176.36,56.4800412 172.36004,60.6 164.36,60.6 C156.35996,60.6 152.36,56.4800412 152.36,48.24 L152.36,39.12 Z M159.92,50.16 C159.92,52.7200128 161.399985,54 164.36,54 C167.320015,54 168.8,52.7200128 168.8,50.16 L168.8,37.2 C168.8,34.6399872 167.320015,33.36 164.36,33.36 C161.399985,33.36 159.92,34.6399872 159.92,37.2 L159.92,50.16 Z M198.2,34.74 C196.759993,33.1799922 195.240008,32.4 193.64,32.4 C192.479994,32.4 191.600003,32.8799952 191,33.84 C190.279996,35.0800062 189.92,37.199985 189.92,40.2 L189.92,47.16 C189.92,50.160015 190.279996,52.259994 191,53.46 C191.600003,54.460005 192.479994,54.96 193.64,54.96 C195.240008,54.96 196.759993,54.1800078 198.2,52.62 L198.2,34.74 Z M198.8,60 L198.8,56.04 L198.68,56.04 C197.959996,57.2000058 196.880007,58.2199956 195.44,59.1 C193.799992,60.100005 192.200008,60.6 190.64,60.6 C185.119972,60.6 182.36,56.2800432 182.36,47.64 L182.36,39.72 C182.36,31.0799568 185.119972,26.76 190.64,26.76 C192.400009,26.76 194.919984,27.959988 198.2,30.36 L198.2,16.68 L205.76,16.68 L205.76,60 L198.8,60 Z M219.92,45.48 L219.92,49.8 C219.92,52.9200156 221.399985,54.48 224.36,54.48 C227.320015,54.48 228.8,52.9600152 228.8,49.92 L236.36,49.92 C235.959998,57.0400356 231.960038,60.6 224.36,60.6 C220.719982,60.6 217.820011,59.5600104 215.66,57.48 C213.459989,55.3999896 212.36,52.5800178 212.36,49.02 L212.36,38.34 C212.36,34.7799822 213.459989,31.9600104 215.66,29.88 C217.820011,27.7999896 220.719982,26.76 224.36,26.76 C227.880018,26.76 230.759989,27.7799898 233,29.82 C235.240011,31.8600102 236.36,34.5399834 236.36,37.86 L236.36,45.48 L219.92,45.48 Z M228.8,39.36 L228.8,37.56 C228.8,34.4399844 227.320015,32.88 224.36,32.88 C221.399985,32.88 219.92,34.4399844 219.92,37.56 L219.92,39.36 L228.8,39.36 Z M268.16,16.68 L268.16,24 L258.5,24 L258.5,60 L250.22,60 L250.22,24 L240.56,24 L240.56,16.68 L268.16,16.68 Z M292.46,27.36 L292.46,60 L285.14,60 L285.14,56.28 C283.499992,57.680007 282.140005,58.6999968 281.06,59.34 C279.579993,60.1800042 278.120007,60.6 276.68,60.6 C271.999977,60.6 269.66,57.800028 269.66,52.2 L269.66,27.36 L277.22,27.36 L277.22,51.36 C277.22,53.760012 278.139991,54.96 279.98,54.96 C280.660003,54.96 281.479995,54.6400032 282.44,54 C283.000003,53.6399982 283.819995,52.9800048 284.9,52.02 L284.9,27.36 L292.46,27.36 Z M307.22,52.62 C308.660007,54.1800078 310.179992,54.96 311.78,54.96 C312.940006,54.96 313.819997,54.460005 314.42,53.46 C315.140004,52.259994 315.5,50.160015 315.5,47.16 L315.5,40.2 C315.5,37.199985 315.140004,35.0800062 314.42,33.84 C313.819997,32.8799952 312.940006,32.4 311.78,32.4 C310.179992,32.4 308.660007,33.1799922 307.22,34.74 L307.22,52.62 Z M299.66,60 L299.66,16.68 L307.22,16.68 L307.22,30.36 C310.500016,27.959988 313.019991,26.76 314.78,26.76 C320.300028,26.76 323.06,31.0799568 323.06,39.72 L323.06,47.64 C323.06,56.2800432 320.300028,60.6 314.78,60.6 C313.219992,60.6 311.620008,60.100005 309.98,59.1 C308.539993,58.2199956 307.460004,57.2000058 306.74,56.04 L306.62,56.04 L306.62,60 L299.66,60 Z M336.62,45.48 L336.62,49.8 C336.62,52.9200156 338.099985,54.48 341.06,54.48 C344.020015,54.48 345.5,52.9600152 345.5,49.92 L353.06,49.92 C352.659998,57.0400356 348.660038,60.6 341.06,60.6 C337.419982,60.6 334.520011,59.5600104 332.36,57.48 C330.159989,55.3999896 329.06,52.5800178 329.06,49.02 L329.06,38.34 C329.06,34.7799822 330.159989,31.9600104 332.36,29.88 C334.520011,27.7999896 337.419982,26.76 341.06,26.76 C344.580018,26.76 347.459989,27.7799898 349.7,29.82 C351.940011,31.8600102 353.06,34.5399834 353.06,37.86 L353.06,45.48 L336.62,45.48 Z M345.5,39.36 L336.62,39.36 L336.62,37.56 C336.62,34.4399844 338.099985,32.88 341.06,32.88 C344.020015,32.88 345.5,34.4399844 345.5,37.56 L345.5,39.36 Z M83.36375,0.777406659 C99.943,1.90472431 101.87675,11.8859188 102,38 C101.87675,64.160525 99.926,74.0994979 83.36375,75.2225933 C68.04675,76.2612456 33.93625,76.2570234 18.63625,75.2225933 C2.057,74.0952757 0.12325,64.1140812 0,38 C0.12325,11.839475 2.074,1.90050215 18.63625,0.777406659 C33.932,-0.257023396 68.04675,-0.26124556 83.36375,0.777406659 Z M38.25,21.111346 L38.25,54.888654 L72.25,37.9704449 L38.25,21.111346 Z" id="path-1"></path>
        <filter x="-0.6%" y="-2.6%" width="101.1%" height="105.3%" filterUnits="objectBoundingBox" id="filter-2">
            <feGaussianBlur stdDeviation="1.5" in="SourceAlpha" result="shadowBlurInner1"></feGaussianBlur>
            <feOffset dx="0" dy="1" in="shadowBlurInner1" result="shadowOffsetInner1"></feOffset>
            <feComposite in="shadowOffsetInner1" in2="SourceAlpha" operator="arithmetic" k2="-1" k3="1" result="shadowInnerInner1"></feComposite>
            <feColorMatrix values="0 0 0 0 0   0 0 0 0 0   0 0 0 0 0  0 0 0 0.5 0" type="matrix" in="shadowInnerInner1"></feColorMatrix>
        </filter>
    </defs>
    <g id="Page-1" stroke="none" stroke-width="1" fill="none" fill-rule="evenodd">
        <g id="CodeTube">
            <use fill="#fff" fill-rule="evenodd" xlink:href="#path-1"></use>
            <use fill="#fff" fill-rule="evenodd" xlink:href="#path-1"></use>
            <use fill="#fff" fill-opacity="1" filter="url(#filter-2)" xlink:href="#path-1"></use>
        </g>
    </g>
</svg>